Coordinates
version=1
nRows=43
nColumns=12
inDegrees=yes

Units are S.I. units (second, meters, Newtons, ...)
Angles are in degrees

endheader
time	SC_y	SC_z	SC_x	AC_y	AC_z	AC_x	GH_y	GH_z	GH_yy	EL_x	PS_y
       0.0              -45.66          39.11          32.69          33.05          2.117         -8.123          98.73           25.3         -120.5          34.45          133.5
  0.009788              -45.66          39.11          32.69          33.06          2.117         -8.123           98.7           25.3         -120.5          34.45          133.5
   0.01958              -45.66           39.1           32.7          33.06          2.116         -8.124          98.67           25.3         -120.4          34.45          133.5
   0.02937              -45.65           39.1           32.7          33.06          2.116         -8.125          98.64           25.3         -120.4          34.45          133.5
   0.03915              -45.65           39.1          32.71          33.06          2.116         -8.126           98.6           25.3         -120.3          34.45          133.5
   0.04894              -45.64          39.09          32.71          33.07          2.115         -8.127          98.57           25.3         -120.3          34.46          133.5
   0.05873              -45.64          39.09          32.72          33.07          2.115         -8.128          98.53           25.3         -120.2          34.46          133.5
   0.06852              -45.63          39.08          32.72          33.07          2.114         -8.129          98.49           25.3         -120.2          34.46          133.5
   0.07831              -45.63          39.08          32.73          33.08          2.114          -8.13          98.44           25.3         -120.1          34.46          133.5
    0.0881              -45.62          39.07          32.73          33.08          2.113         -8.131           98.4           25.3         -120.0          34.46          133.5
   0.09788              -45.62          39.07          32.74          33.09          2.113         -8.133          98.35           25.3         -120.0          34.46          133.5
    0.1077              -45.61          39.06          32.75          33.09          2.112         -8.134          98.29          25.29         -119.9          34.47          133.5
    0.1175               -45.6          39.05          32.75           33.1          2.112         -8.136          98.23          25.29         -119.8          34.47          133.5
    0.1273              -45.59          39.05          32.76           33.1          2.111         -8.137          98.17          25.29         -119.7          34.47          133.5
     0.137              -45.59          39.04          32.77          33.11           2.11         -8.139           98.1          25.29         -119.6          34.47          133.5
    0.1468              -45.58          39.03          32.78          33.11           2.11         -8.141          98.03          25.29         -119.5          34.48          133.5
    0.1566              -45.57          39.02          32.79          33.12          2.109         -8.143          97.95          25.29         -119.4          34.48          133.5
    0.1664              -45.55          39.01           32.8          33.13          2.108         -8.146          97.86          25.29         -119.3          34.48          133.5
    0.1762              -45.54           39.0          32.81          33.14          2.107         -8.148          97.77          25.29         -119.2          34.49          133.5
     0.186              -45.53          38.99          32.83          33.15          2.106         -8.151          97.66          25.29         -119.0          34.49          133.5
    0.1958              -45.51          38.97          32.84          33.16          2.105         -8.154          97.55          25.29         -118.8          34.49          133.5
    0.2056               -45.5          38.96          32.86          33.17          2.103         -8.157          97.42          25.29         -118.7           34.5          133.5
    0.2153              -45.48          38.94          32.88          33.18          2.102         -8.161          97.28          25.29         -118.5           34.5          133.5
    0.2251              -45.46          38.93           32.9          33.19            2.1         -8.165          97.12          25.28         -118.3          34.51          133.5
    0.2349              -45.44          38.91          32.92          33.21          2.099          -8.17          96.95          25.28         -118.0          34.52          133.5
    0.2447              -45.41          38.88          32.94          33.22          2.097         -8.175          96.76          25.28         -117.7          34.52          133.5
    0.2545              -45.39          38.86          32.97          33.24          2.094          -8.18          96.54          25.28         -117.4          34.53          133.5
    0.2643              -45.36          38.83           33.0          33.26          2.092         -8.187           96.3          25.28         -117.1          34.54          133.5
    0.2741              -45.32           38.8          33.04          33.29          2.089         -8.194          96.03          25.28         -116.7          34.55          133.5
    0.2839              -45.28          38.77          33.08          33.31          2.086         -8.202          95.72          25.27         -116.3          34.56          133.5
    0.2937              -45.24          38.73          33.13          33.35          2.082         -8.212          95.36          25.27         -115.8          34.58          133.5
    0.3034              -45.18          38.68          33.18          33.38          2.078         -8.222          94.96          25.27         -115.2          34.59          133.5
    0.3132              -45.12          38.62          33.24          33.42          2.073         -8.235          94.49          25.26         -114.5          34.61          133.5
     0.323              -45.05          38.56          33.31          33.47          2.068         -8.249          93.94          25.26         -113.8          34.63          133.4
    0.3328              -44.97          38.49          33.39          33.52          2.061         -8.266           93.3          25.25         -112.9          34.66          133.4
    0.3426              -44.88           38.4          33.49          33.59          2.053         -8.286          92.55          25.25         -111.8          34.69          133.4
    0.3524              -44.76           38.3          33.61          33.67          2.044          -8.31          91.65          25.24         -110.5          34.72          133.4
    0.3622              -44.63          38.18          33.75          33.76          2.033         -8.338          90.58          25.23         -109.0          34.76          133.4
     0.372              -44.46          38.03          33.92          33.87           2.02         -8.372          89.28          25.22         -107.2          34.81          133.4
    0.3818              -44.26          37.85          34.12          34.01          2.003         -8.414          87.69           25.2         -105.0          34.87          133.4
    0.3915              -44.01          37.62          34.38          34.18          1.983         -8.466          85.74          25.19         -102.2          34.95          133.4
    0.4013               -43.7          37.34          34.69          34.39          1.958         -8.531          83.29          25.17         -98.78          35.04          133.3
    0.4111              -43.31          36.99          35.09          34.66          1.926         -8.612          80.22          25.14         -94.45          35.16          133.3
